<svg xmlns="http://www.w3.org/2000/svg" fill="none" viewBox="0 0 1503 1504"><path fill="#fff" d="M287 258h928v844H287z"/><path fill="#E84142" fill-rule="evenodd" d="M1503 752A751 751 0 1 1 1 752a751 751 0 0 1 1502 0Zm-964 299H393c-31 0-46 0-55-6-10-6-16-17-17-29 0-11 7-24 22-51l360-634c15-27 23-40 33-45 11-6 23-6 34 0 9 5 17 18 32 45l74 129 1 1c16 29 25 43 28 59 4 16 4 34 0 51-3 15-12 30-28 60L688 965l-1 1c-17 29-25 43-37 55s-28 21-45 26c-15 4-32 4-66 4Zm368 0h209c30 0 46 0 55-6 10-7 16-18 17-29 0-11-7-24-21-49l-2-2-105-179-1-2c-14-25-22-38-31-43-11-5-23-5-34 0-9 5-17 19-32 45L857 965v1c-15 26-23 39-22 50 0 12 6 23 16 29 9 6 25 6 56 6Z" clip-rule="evenodd"/></svg>